<mxfile host="app.diagrams.net" agent="Mozilla/5.0 (Windows NT 10.0; Win64; x64) AppleWebKit/537.36 (KHTML, like Gecko) Chrome/131.0.0.0 Safari/537.36" version="26.0.2">
  <diagram name="Página-1" id="VV7MK94w8vh-9CFesRGf">
    <mxGraphModel dx="880" dy="434" grid="1" gridSize="10" guides="1" tooltips="1" connect="1" arrows="1" fold="1" page="1" pageScale="1" pageWidth="827" pageHeight="1169" math="0" shadow="0">
      <root>
        <mxCell id="0" />
        <mxCell id="1" parent="0" />
        <mxCell id="cIJ_xlBMrgR9hH7BB4or-32" value="" style="edgeStyle=orthogonalEdgeStyle;rounded=0;orthogonalLoop=1;jettySize=auto;html=1;" edge="1" parent="1" source="cIJ_xlBMrgR9hH7BB4or-1" target="cIJ_xlBMrgR9hH7BB4or-2">
          <mxGeometry relative="1" as="geometry" />
        </mxCell>
        <mxCell id="cIJ_xlBMrgR9hH7BB4or-1" value="Inicio" style="ellipse;whiteSpace=wrap;html=1;" vertex="1" parent="1">
          <mxGeometry x="50" y="40" width="130" height="60" as="geometry" />
        </mxCell>
        <mxCell id="cIJ_xlBMrgR9hH7BB4or-33" value="" style="edgeStyle=orthogonalEdgeStyle;rounded=0;orthogonalLoop=1;jettySize=auto;html=1;" edge="1" parent="1" source="cIJ_xlBMrgR9hH7BB4or-2" target="cIJ_xlBMrgR9hH7BB4or-17">
          <mxGeometry relative="1" as="geometry" />
        </mxCell>
        <mxCell id="cIJ_xlBMrgR9hH7BB4or-2" value="Saldo" style="shape=manualInput;whiteSpace=wrap;html=1;" vertex="1" parent="1">
          <mxGeometry x="42.5" y="120" width="145" height="80" as="geometry" />
        </mxCell>
        <mxCell id="cIJ_xlBMrgR9hH7BB4or-3" value="encerrar = ´n`" style="rounded=0;whiteSpace=wrap;html=1;" vertex="1" parent="1">
          <mxGeometry x="62.5" y="240" width="120" height="60" as="geometry" />
        </mxCell>
        <mxCell id="cIJ_xlBMrgR9hH7BB4or-5" value="encerrar = ´n`" style="strokeWidth=2;html=1;shape=mxgraph.flowchart.decision;whiteSpace=wrap;strokeColor=default;" vertex="1" parent="1">
          <mxGeometry x="65" y="330" width="100" height="100" as="geometry" />
        </mxCell>
        <mxCell id="cIJ_xlBMrgR9hH7BB4or-6" value="" style="shape=manualInput;whiteSpace=wrap;html=1;" vertex="1" parent="1">
          <mxGeometry x="30" y="1090" width="150" height="80" as="geometry" />
        </mxCell>
        <mxCell id="cIJ_xlBMrgR9hH7BB4or-7" value="" style="shape=manualInput;whiteSpace=wrap;html=1;" vertex="1" parent="1">
          <mxGeometry x="40" y="600" width="150" height="80" as="geometry" />
        </mxCell>
        <mxCell id="cIJ_xlBMrgR9hH7BB4or-8" value="" style="shape=manualInput;whiteSpace=wrap;html=1;" vertex="1" parent="1">
          <mxGeometry x="40" y="490" width="140" height="80" as="geometry" />
        </mxCell>
        <mxCell id="cIJ_xlBMrgR9hH7BB4or-9" value="" style="strokeWidth=2;html=1;shape=mxgraph.flowchart.decision;whiteSpace=wrap;" vertex="1" parent="1">
          <mxGeometry x="65" y="710" width="100" height="100" as="geometry" />
        </mxCell>
        <mxCell id="cIJ_xlBMrgR9hH7BB4or-10" value="" style="strokeWidth=2;html=1;shape=mxgraph.flowchart.decision;whiteSpace=wrap;" vertex="1" parent="1">
          <mxGeometry x="60" y="840" width="100" height="100" as="geometry" />
        </mxCell>
        <mxCell id="cIJ_xlBMrgR9hH7BB4or-11" value="" style="rounded=0;whiteSpace=wrap;html=1;" vertex="1" parent="1">
          <mxGeometry x="230" y="750" width="120" height="60" as="geometry" />
        </mxCell>
        <mxCell id="cIJ_xlBMrgR9hH7BB4or-15" value="" style="strokeWidth=2;html=1;shape=mxgraph.flowchart.decision;whiteSpace=wrap;" vertex="1" parent="1">
          <mxGeometry x="240" y="840" width="100" height="100" as="geometry" />
        </mxCell>
        <mxCell id="cIJ_xlBMrgR9hH7BB4or-17" value="Saldo inicial: &#39;&#39;+&amp;nbsp;&lt;div&gt;saldo&lt;/div&gt;" style="strokeWidth=2;html=1;shape=mxgraph.flowchart.display;whiteSpace=wrap;" vertex="1" parent="1">
          <mxGeometry x="300" y="130" width="120" height="60" as="geometry" />
        </mxCell>
        <mxCell id="cIJ_xlBMrgR9hH7BB4or-18" value="" style="strokeWidth=2;html=1;shape=mxgraph.flowchart.display;whiteSpace=wrap;" vertex="1" parent="1">
          <mxGeometry x="660" y="820" width="100" height="60" as="geometry" />
        </mxCell>
        <mxCell id="cIJ_xlBMrgR9hH7BB4or-20" value="" style="strokeWidth=2;html=1;shape=mxgraph.flowchart.display;whiteSpace=wrap;" vertex="1" parent="1">
          <mxGeometry x="45" y="990" width="140" height="60" as="geometry" />
        </mxCell>
        <mxCell id="cIJ_xlBMrgR9hH7BB4or-22" value="" style="strokeWidth=2;html=1;shape=mxgraph.flowchart.display;whiteSpace=wrap;" vertex="1" parent="1">
          <mxGeometry x="55" y="1220" width="135" height="60" as="geometry" />
        </mxCell>
        <mxCell id="cIJ_xlBMrgR9hH7BB4or-24" value="" style="strokeWidth=2;html=1;shape=mxgraph.flowchart.display;whiteSpace=wrap;" vertex="1" parent="1">
          <mxGeometry x="410" y="750" width="100" height="60" as="geometry" />
        </mxCell>
        <mxCell id="cIJ_xlBMrgR9hH7BB4or-25" value="" style="rounded=0;whiteSpace=wrap;html=1;" vertex="1" parent="1">
          <mxGeometry x="420" y="860" width="120" height="60" as="geometry" />
        </mxCell>
        <mxCell id="cIJ_xlBMrgR9hH7BB4or-26" value="" style="ellipse;whiteSpace=wrap;html=1;" vertex="1" parent="1">
          <mxGeometry x="60" y="1320" width="120" height="80" as="geometry" />
        </mxCell>
      </root>
    </mxGraphModel>
  </diagram>
</mxfile>
